<?xml version="1.0" encoding="utf-8"?>
<!-- Generator: Adobe Illustrator 16.0.0, SVG Export Plug-In . SVG Version: 6.00 Build 0)  -->
<!DOCTYPE svg PUBLIC "-//W3C//DTD SVG 1.1//EN" "http://www.w3.org/Graphics/SVG/1.1/DTD/svg11.dtd">
<svg version="1.1" id="Layer_1" xmlns="http://www.w3.org/2000/svg" xmlns:xlink="http://www.w3.org/1999/xlink" x="0px" y="0px"
	 width="141.732px" height="141.732px" viewBox="0 0 141.732 141.732" enable-background="new 0 0 141.732 141.732"
	 xml:space="preserve">
<g>
	<path fill="#6D291D" d="M83.052,141.739H58.64v-15.453c-6.601-1.42-12.941-4.057-18.597-7.734l-12.065,12.062l-17.255-17.242
		l12.25-12.259c-3.213-5.214-5.517-10.898-6.868-16.952H0V59.773h16.102c1.318-5.928,3.542-11.496,6.644-16.617L9.009,29.399
		l17.249-17.244L39.707,25.6c5.757-3.805,12.213-6.517,18.933-7.957V-0.006h24.413v17.865c6.406,1.501,12.404,4.093,17.888,7.738
		l12.905-12.898l17.256,17.24l-13.205,13.218c3.101,5.12,5.328,10.687,6.644,16.614l17.192-0.019V84.16h-17.196
		c-1.341,6.044-3.645,11.726-6.864,16.952l12.73,12.74l-17.248,17.255l-12.55-12.556c-5.397,3.533-11.28,6.051-17.552,7.514V141.739
		z M70.319,56.508c-8.522,0-15.456,6.93-15.456,15.449c0,8.525,6.934,15.466,15.456,15.466c8.525,0,15.462-6.94,15.462-15.466
		C85.781,63.438,78.844,56.508,70.319,56.508z"/>
</g>
</svg>
