<?xml version="1.0" encoding="utf-8"?>
<!-- Generator: Adobe Illustrator 16.0.0, SVG Export Plug-In . SVG Version: 6.00 Build 0)  -->
<!DOCTYPE svg PUBLIC "-//W3C//DTD SVG 1.1//EN" "http://www.w3.org/Graphics/SVG/1.1/DTD/svg11.dtd">
<svg version="1.1" id="Layer_1" xmlns="http://www.w3.org/2000/svg" xmlns:xlink="http://www.w3.org/1999/xlink" x="0px" y="0px"
	 width="141.732px" height="141.732px" viewBox="0 0 141.732 141.732" enable-background="new 0 0 141.732 141.732"
	 xml:space="preserve">
<g>
	<path fill="#6D291D" d="M83.052,141.739H58.64v-15.453c-6.601-1.42-12.941-4.057-18.597-7.734l-12.065,12.062l-17.255-17.242
		l12.25-12.259c-3.213-5.214-5.517-10.898-6.868-16.952H0V59.773h16.102c1.318-5.928,3.542-11.496,6.644-16.617L9.009,29.399
		l17.249-17.244L39.707,25.6c5.757-3.805,12.213-6.517,18.933-7.957V-0.006h24.413v17.865c6.406,1.501,12.404,4.093,17.888,7.738
		l12.905-12.898l17.256,17.24l-13.205,13.218c3.101,5.12,5.328,10.687,6.644,16.614l17.192-0.019V84.16h-17.196
		c-1.341,6.044-3.645,11.726-6.864,16.952l12.73,12.74l-17.248,17.255l-12.55-12.556c-5.397,3.533-11.28,6.051-17.552,7.514V141.739
		z M65.389,134.99h10.915v-14.487l2.774-0.501c7.254-1.312,13.96-4.188,19.932-8.549l2.333-1.707l11.812,11.818l7.704-7.712
		l-11.88-11.89l1.595-2.313c4.011-5.827,6.657-12.365,7.863-19.431l0.478-2.808h16.069V66.508l-16.069,0.018l-0.48-2.812
		c-1.184-6.963-3.754-13.399-7.636-19.129l-1.565-2.307l12.325-12.336l-7.712-7.704L101.652,34.43l-2.34-1.733
		c-6.04-4.477-12.849-7.43-20.237-8.772l-2.771-0.504V6.743H65.389v16.583l-2.844,0.453c-7.632,1.212-14.968,4.297-21.216,8.919
		l-2.336,1.73L26.258,21.699l-7.705,7.703l12.853,12.875l-1.562,2.305c-3.878,5.729-6.449,12.167-7.642,19.134l-0.478,2.806H6.749
		v10.888H21.72l0.481,2.801c1.219,7.086,3.869,13.624,7.87,19.438l1.595,2.313l-11.399,11.405l7.711,7.701l11.32-11.319l2.333,1.7
		c6.156,4.485,13.386,7.497,20.917,8.703l2.841,0.455V134.99z M70.319,94.172c-12.243,0-22.205-9.966-22.205-22.215
		c0-12.239,9.962-22.198,22.205-22.198c12.246,0,22.211,9.959,22.211,22.198C92.53,84.206,82.565,94.172,70.319,94.172z
		 M70.319,56.508c-8.522,0-15.456,6.93-15.456,15.449c0,8.525,6.934,15.466,15.456,15.466c8.525,0,15.462-6.94,15.462-15.466
		C85.781,63.438,78.844,56.508,70.319,56.508z"/>
</g>
</svg>
