<?xml version="1.0" encoding="UTF-8" standalone="no"?>
<svg width="86px" height="66px" viewBox="0 0 86 66" version="1.1" xmlns="http://www.w3.org/2000/svg" xmlns:xlink="http://www.w3.org/1999/xlink">
    <!-- Generator: Sketch 3.8.1 (29687) - http://www.bohemiancoding.com/sketch -->
    <title>lapis</title>
    <desc>Created with Sketch.</desc>
    <defs></defs>
    <g id="Page-1" stroke="none" stroke-width="1" fill="none" fill-rule="evenodd">
        <g id="lapis" transform="translate(-1.000000, -1.000000)" fill="#4E1600">
            <g id="Group" transform="translate(0.000000, 0.637820)">
                <path d="M52.473833,0.94943 C52.4108403,0.956849637 52.3482363,0.967261402 52.286233,0.98063 C51.8383852,1.02907499 51.4200015,1.22727343 51.098833,1.54313 L3.0050325,49.6369 C2.68915571,49.9580946 2.49095572,50.3765168 2.4425325,50.8244 L1.0050325,63.5744 C0.944374195,64.1767457 1.1597872,64.7741541 1.59089412,65.1991795 C2.02200103,65.6242049 2.62240931,65.8311092 3.2238325,65.7619 L15.942533,64.3557 C16.4014298,64.3141687 16.8319155,64.1154748 17.161233,63.7932 L65.223833,15.69943 C65.6035651,15.3237252 65.8172381,14.8117371 65.8172381,14.277555 C65.8172381,13.7433729 65.6035651,13.2313848 65.223833,12.85568 L53.911233,1.54318 C53.5318085,1.1594714 53.0134427,0.945348868 52.473833,0.94943 L52.473833,0.94943 Z M52.504833,5.79318 L60.973633,14.26193 L58.161033,17.10568 L49.692333,8.63693 L52.504833,5.79318 L52.504833,5.79318 Z M46.848633,11.44943 L55.317333,19.91818 L16.442333,58.8244 L7.973633,50.3557 L46.848633,11.44943 L46.848633,11.44943 Z M6.098633,54.1369 L12.661033,60.6994 L5.286033,61.5119 L6.098633,54.1369 L6.098633,54.1369 Z M29.005033,61.7619 C27.900433,61.7619 27.005033,62.6573 27.005033,63.7619 C27.005033,64.8665 27.900433,65.7619 29.005033,65.7619 L85.005033,65.7619 C86.109633,65.7619 87.005033,64.8665 87.005033,63.7619 C87.005033,62.6573 86.109633,61.7619 85.005033,61.7619 L29.005033,61.7619 L29.005033,61.7619 Z" id="Shape"></path>
            </g>
        </g>
    </g>
</svg>