<?xml version="1.0" encoding="utf-8"?>
<!-- Generator: Adobe Illustrator 16.0.0, SVG Export Plug-In . SVG Version: 6.00 Build 0)  -->
<!DOCTYPE svg PUBLIC "-//W3C//DTD SVG 1.1//EN" "http://www.w3.org/Graphics/SVG/1.1/DTD/svg11.dtd">
<svg version="1.1" id="Layer_1" xmlns="http://www.w3.org/2000/svg" xmlns:xlink="http://www.w3.org/1999/xlink" x="0px" y="0px"
	 width="141.732px" height="141.732px" viewBox="0 0 141.732 141.732" enable-background="new 0 0 141.732 141.732"
	 xml:space="preserve">
<g>
	<path fill="#6D291D" d="M60.949,41.103V94.96H7.086V41.103H60.949 M68.036,34.016H0v68.03h68.036V34.016L68.036,34.016z"/>
	<path fill="#6D291D" d="M60.949,114.803v19.843H7.086v-19.843H60.949 M68.036,107.716H0v34.017h68.036V107.716L68.036,107.716z"/>
	<path fill="#6D291D" d="M134.645,80.786v53.859H80.79V80.786H134.645 M141.732,73.7H73.704v68.032h68.028V73.7L141.732,73.7z"/>
	<path fill="#6D291D" d="M60.949,7.087V21.26H7.086V7.087H60.949 M68.036,0H0v28.347h68.036V0L68.036,0z"/>
	<path fill="#6D291D" d="M134.645,7.087v53.859H80.79V7.087H134.645 M141.732,0H73.704v68.032h68.028V0L141.732,0z"/>
</g>
</svg>
