<?xml version="1.0" encoding="utf-8"?>
<!-- Generator: Adobe Illustrator 16.0.0, SVG Export Plug-In . SVG Version: 6.00 Build 0)  -->
<!DOCTYPE svg PUBLIC "-//W3C//DTD SVG 1.1//EN" "http://www.w3.org/Graphics/SVG/1.1/DTD/svg11.dtd">
<svg version="1.1" id="Layer_1" xmlns="http://www.w3.org/2000/svg" xmlns:xlink="http://www.w3.org/1999/xlink" x="0px" y="0px"
	 width="141.732px" height="141.732px" viewBox="0 0 141.732 141.732" enable-background="new 0 0 141.732 141.732"
	 xml:space="preserve">
<g>
	<path fill="#4E1600" d="M73.873,0.073C41.934-1.537,14.705,23.901,13.031,56.881c-1.92,38.353,41.015,84.202,53.711,84.841
		c13.384,0.672,60.004-40.656,61.943-79.009C130.345,29.734,105.791,1.684,73.873,0.073z M86.599,87.704v-7.09H53.993v6.935
		c-10.416-5.784-17.478-16.9-17.478-29.669c0-9.007,3.512-17.179,9.239-23.253h49.354c5.727,6.075,9.245,14.246,9.245,23.253
		C104.354,70.757,97.178,81.97,86.599,87.704z"/>
</g>
</svg>
