<?xml version="1.0" encoding="utf-8"?>
<!-- Generator: Adobe Illustrator 16.0.0, SVG Export Plug-In . SVG Version: 6.00 Build 0)  -->
<!DOCTYPE svg PUBLIC "-//W3C//DTD SVG 1.1//EN" "http://www.w3.org/Graphics/SVG/1.1/DTD/svg11.dtd">
<svg version="1.1" id="Layer_1" xmlns="http://www.w3.org/2000/svg" xmlns:xlink="http://www.w3.org/1999/xlink" x="0px" y="0px"
	 width="141.732px" height="141.732px" viewBox="0 0 141.732 141.732" enable-background="new 0 0 141.732 141.732"
	 xml:space="preserve">
<g>
	<path fill="#FFBC00" d="M70.989,6.443c0.864,0,1.735,0.022,2.61,0.066c29.016,1.464,51.338,26.963,49.828,56.946
		c-1.749,34.587-43.468,71.833-56.014,71.833c-0.101,0-0.201,0-0.299-0.006C55.573,134.7,16.541,93.019,18.287,58.153
		C19.764,29.073,43.094,6.443,70.989,6.443 M55.526,86.032v-6.304h29.643v6.445c9.617-5.212,16.142-15.406,16.142-27.113
		c0-8.188-3.199-15.617-8.406-21.139H48.036c-5.207,5.522-8.399,12.951-8.399,21.139C39.637,70.668,46.057,80.774,55.526,86.032
		 M70.989,0.001c-31.514,0-57.49,25.4-59.137,57.825c-1.845,36.848,38.276,83.049,54.939,83.889
		c0.205,0.013,0.412,0.017,0.623,0.017c9.929,0,25.664-12.603,36.856-25.091c9.072-10.126,24.461-30.457,25.591-52.86
		c1.688-33.486-23.408-62.064-55.938-63.706C72.941,0.026,71.964,0.001,70.989,0.001L70.989,0.001z M51.012,44.364h38.917
		c3.202,4.222,4.938,9.351,4.938,14.697c0,5.2-1.647,10.151-4.57,14.226h-5.128H55.526h-4.863
		c-2.929-4.081-4.583-9.037-4.583-14.226C46.079,53.711,47.814,48.582,51.012,44.364L51.012,44.364z"/>
</g>
</svg>
