<?xml version="1.0" encoding="utf-8"?>
<!-- Generator: Adobe Illustrator 16.0.0, SVG Export Plug-In . SVG Version: 6.00 Build 0)  -->
<!DOCTYPE svg PUBLIC "-//W3C//DTD SVG 1.1//EN" "http://www.w3.org/Graphics/SVG/1.1/DTD/svg11.dtd">
<svg version="1.1" id="Layer_1" xmlns="http://www.w3.org/2000/svg" xmlns:xlink="http://www.w3.org/1999/xlink" x="0px" y="0px"
	 width="300px" height="67.5px" viewBox="0 0 300 67.5" enable-background="new 0 0 300 67.5" xml:space="preserve">
<g>
	<g>
		<path fill="#FFBC00" d="M29.453,42.316H16.055C7.203,42.316,0,35.313,0,26.706v-3.518c0-8.608,7.202-15.61,16.055-15.61h13.397
			v6.595H16.055c-5.213,0-9.454,4.045-9.454,9.016v3.518c0,4.971,4.241,9.015,9.454,9.015h13.397V42.316z"/>
		<path fill="#FFBC00" d="M47.571,14.172h13.396V7.578H47.571c-8.854,0-16.056,7.002-16.056,15.61v3.518
			c0,8.607,7.202,15.61,16.056,15.61h13.396V35.72H47.571c-4.663,0-8.546-3.236-9.313-7.476h16.934v-6.596H38.257
			C39.026,17.409,42.908,14.172,47.571,14.172z"/>
		<path fill="#FFBC00" d="M147.539,7.578h-5.742h-7.655c-8.852,0-16.056,7.002-16.056,15.61v3.518c0,8.607,7.204,15.61,16.056,15.61
			h7.655v0.002h6.601V7.578H147.539z M134.141,35.72c-5.212,0-9.454-4.044-9.454-9.015v-3.518c0-4.971,4.242-9.016,9.454-9.016
			h7.655V35.72H134.141z"/>
		<polygon fill="#FFBC00" points="111.075,7.578 102.521,31.454 93.892,7.578 86.875,7.578 99.43,42.322 105.641,42.314 
			118.085,7.578 		"/>
		<path fill="#FFBC00" d="M84.44,7.702c-0.627-0.078-1.259-0.121-1.893-0.121h-3.521c-8.616,0-15.625,7.195-15.625,16.041v18.696
			h6.602V23.622c0-5.208,4.048-9.446,9.023-9.446h3.521c0.64,0,1.276,0.07,1.893,0.208V7.702z"/>
	</g>
	<g>
		<path fill="#4E1600" d="M235.366,42.318h-6.601V23.622c0-5.208-4.048-9.446-9.023-9.446h-3.521c-4.976,0-9.022,4.238-9.022,9.446
			v18.696h-6.602V23.622c0-8.846,7.009-16.041,15.624-16.041h3.521c8.615,0,15.624,7.195,15.624,16.041V42.318z"/>
		<path fill="#4E1600" d="M286.604,14.172H300V7.578h-13.396c-8.853,0-16.056,7.002-16.056,15.61v3.518
			c0,8.607,7.203,15.61,16.056,15.61H300V35.72h-13.396c-4.663,0-8.546-3.236-9.313-7.476h16.935v-6.596h-16.935
			C278.058,17.409,281.941,14.172,286.604,14.172z"/>
		<path fill="#4E1600" d="M252.057,7.58h-7.655V7.578h-6.601v34.74h0.859h5.741h7.655c8.854,0,16.057-7.002,16.057-15.61V23.19
			C268.114,14.582,260.911,7.58,252.057,7.58z M261.512,26.708c0,4.972-4.242,9.016-9.455,9.016h-7.655V14.175h7.655
			c5.213,0,9.455,4.044,9.455,9.015V26.708z"/>
		<g>
			<path fill="#4E1600" d="M174.498,0c-13.067,0-23.665,10.935-23.665,24.418c0,15.685,18.476,33.501,23.665,33.501
				c5.48,0,23.664-17.816,23.664-33.501C198.162,10.935,187.562,0,174.498,0z M181.159,35.824v-2.896h-13.324v2.832
				c-4.262-2.363-7.146-6.902-7.146-12.117c0-3.677,1.437-7.017,3.776-9.495h20.176c2.34,2.479,3.775,5.818,3.775,9.495
				C188.416,28.904,185.482,33.479,181.159,35.824z"/>
			<path fill="#6D291D" d="M167.834,32.928v2.832c-4.262-2.363-7.146-6.902-7.146-12.117c0-3.677,1.437-7.017,3.776-9.495h10.033V0
				c-13.067,0-23.665,10.935-23.665,24.418c0,15.685,18.476,33.501,23.665,33.501V32.928H167.834z"/>
			<path fill-rule="evenodd" clip-rule="evenodd" fill="#D1D3D4" d="M180.241,59.728c-2.195,1.368-4.092,2.04-5.743,2.04
				c-1.609,0-3.478-0.676-5.66-2.052c-4.605,0.648-7.801,2.062-7.801,3.703c0,2.254,6.027,4.081,13.461,4.081
				c7.433,0,13.459-1.827,13.459-4.081C187.957,61.789,184.802,60.382,180.241,59.728z"/>
		</g>
	</g>
</g>
</svg>
