<?xml version="1.0" encoding="UTF-8" standalone="no"?>
<svg width="53px" height="47px" viewBox="0 0 53 47" version="1.1" xmlns="http://www.w3.org/2000/svg" xmlns:xlink="http://www.w3.org/1999/xlink">
    <!-- Generator: Sketch 3.8.1 (29687) - http://www.bohemiancoding.com/sketch -->
  
    <g id="Page-1" stroke="none" stroke-width="1" fill="none" fill-rule="evenodd">
        <g id="sugira" transform="translate(1.000000, 1.000000)" stroke-width="2">
            <g id="Group">
                <path d="M28.72,22.095 C28.65,15.883 26.414,15.044 26.414,15.044 L25.158,3.595 C25.578,3.525 25.859,3.106 25.859,3.106 L25.228,1.291 C25.926,1.082 25.846,0.791 25.846,0.791 C25.846,0.791 25.856,0.07 25.404,0 L23.205,0 L21.005,0 C20.551,0.07 20.564,0.791 20.564,0.791 C20.564,0.791 20.481,1.082 21.181,1.291 L20.551,3.106 C20.551,3.106 20.832,3.525 21.251,3.595 L19.993,15.044 C19.993,15.044 17.758,15.882 17.69,22.095 C17.62,28.307 17.69,44.154 17.69,44.154 C17.69,44.154 17.757,44.992 18.526,44.992 L23.205,44.992 L27.881,44.992 C28.65,44.992 28.72,44.154 28.72,44.154 C28.72,44.154 28.787,28.308 28.72,22.095 L28.72,22.095 Z" id="Shape" stroke="#4E1600" fill="#4E1600"></path>
                <path d="M12.15,15.271 C12.1,14.484 11.628,14.432 11.628,14.432 L6.433,14.432 L6.131,14.432 L0.936,14.432 C0.936,14.432 0.464,14.484 0.414,15.271 C0.361,16.056 -0.738,23.805 0.884,27.469 C2.506,31.134 2.087,43.228 2.087,43.228 C2.087,43.228 1.728,44.974 3.217,44.992 C4.457,45.006 5.846,44.998 6.283,44.994 C6.72,44.998 8.108,45.006 9.348,44.992 C10.837,44.974 10.479,43.228 10.479,43.228 C10.479,43.228 10.057,31.134 11.681,27.469 C13.303,23.805 12.203,16.057 12.15,15.271 L12.15,15.271 Z" id="Shape" stroke="#4E1600" fill="#4E1600"></path>
                <circle id="Oval" stroke="#4E1600" fill="#4E1600" cx="42.435" cy="35.992" r="8.333"></circle>
                <g transform="translate(36.000000, 30.000000)" id="Shape" stroke="#FFFFFF">
                    <path d="M6.435,0.521 L6.435,11.464"></path>
                    <path d="M11.905,5.992 L0.964,5.992"></path>
                </g>
            </g>
        </g>
    </g>
</svg>
