<?xml version="1.0" encoding="utf-8"?>
<!-- Generator: Adobe Illustrator 16.0.0, SVG Export Plug-In . SVG Version: 6.00 Build 0)  -->
<!DOCTYPE svg PUBLIC "-//W3C//DTD SVG 1.1//EN" "http://www.w3.org/Graphics/SVG/1.1/DTD/svg11.dtd">
<svg version="1.1" id="Layer_1" xmlns="http://www.w3.org/2000/svg" xmlns:xlink="http://www.w3.org/1999/xlink" x="0px" y="0px"
	 width="52.768px" height="47px" viewBox="0 0 52.768 47" enable-background="new 0 0 52.768 47" xml:space="preserve">
<g>
	<path fill="none" stroke="#4E1600" stroke-width="2" stroke-miterlimit="10" d="M29.72,23.095c-0.07-6.212-2.306-7.051-2.306-7.051
		L26.158,4.595c0.42-0.07,0.701-0.489,0.701-0.489l-0.631-1.815c0.698-0.209,0.618-0.5,0.618-0.5S26.856,1.07,26.404,1l-2.199,0
		l-2.2,0c-0.454,0.07-0.441,0.791-0.441,0.791s-0.083,0.291,0.617,0.5l-0.63,1.815c0,0,0.281,0.419,0.7,0.489l-1.258,11.449
		c0,0-2.235,0.838-2.303,7.051c-0.07,6.212,0,22.059,0,22.059s0.067,0.838,0.836,0.838s4.679,0,4.679,0s3.907,0,4.676,0
		s0.839-0.838,0.839-0.838S29.787,29.308,29.72,23.095z"/>
	<path fill="none" stroke="#4E1600" stroke-width="2" stroke-miterlimit="10" d="M13.15,16.271c-0.05-0.787-0.522-0.839-0.522-0.839
		H7.433H7.131H1.936c0,0-0.472,0.052-0.522,0.839c-0.053,0.785-1.152,8.534,0.47,12.198c1.622,3.665,1.203,15.759,1.203,15.759
		s-0.359,1.746,1.13,1.764c1.24,0.014,2.629,0.006,3.066,0.002c0.437,0.004,1.825,0.012,3.065-0.002
		c1.489-0.018,1.131-1.764,1.131-1.764s-0.422-12.094,1.202-15.759C14.303,24.805,13.203,17.057,13.15,16.271z"/>
	<circle fill="none" stroke="#4E1600" stroke-width="2" stroke-miterlimit="10" cx="43.435" cy="36.992" r="8.333"/>
	<g>
		<line fill="none" stroke="#4E1600" stroke-width="2" stroke-miterlimit="10" x1="43.435" y1="31.521" x2="43.435" y2="42.464"/>
		<line fill="none" stroke="#4E1600" stroke-width="2" stroke-miterlimit="10" x1="48.905" y1="36.992" x2="37.964" y2="36.992"/>
	</g>
</g>
</svg>
